<?xml version="1.0" encoding="utf-8"?>
<!-- Generator: Adobe Illustrator 25.2.1, SVG Export Plug-In . SVG Version: 6.00 Build 0)  -->
<svg version="1.1" id="Layer_1" xmlns="http://www.w3.org/2000/svg" xmlns:xlink="http://www.w3.org/1999/xlink" x="0px" y="0px"
	 viewBox="0 0 672.6 129.4" style="enable-background:new 0 0 672.6 129.4;" xml:space="preserve">
<style type="text/css">
	.st0{fill:#FFFFFF;}
</style>
<g>
	<path class="st0" d="M651.4,10.6C651.4,4.8,656.1,0,662,0c5.8,0,10.6,4.7,10.6,10.6c0,5.8-4.7,10.6-10.6,10.6
		C656.2,21.2,651.4,16.4,651.4,10.6z M670,10.6c0-4.9-3.6-8.5-8-8.5s-8,3.6-8,8.5s3.6,8.5,8,8.5S670,15.6,670,10.6z M657.9,4.6h4.4
		c2.9,0,4.4,1,4.4,3.5c0,2-1.2,3-3.1,3.2l3.2,5.2h-2.3l-3.1-5.1h-1.3v5.1h-2.2L657.9,4.6L657.9,4.6z M660.2,9.7h2
		c1.3,0,2.5-0.2,2.5-1.8c0-1.4-1.3-1.6-2.4-1.6h-2L660.2,9.7L660.2,9.7z"/>
</g>
<path class="st0" d="M292.4,71.3c0,0,7.9,0,11.8,0c9.6,0,13.6-5,13.6-11c0-7.8-6.6-10.8-13.6-10.8c-4.2,0-11.8,0-11.8,0V71.3z
	 M400.7,48.5l-11.1,33.9h22.8l-11.1-33.9H400.7z M0,26.5h39.6c0,0-0.1,68.3-0.1,102.8c-0.2,0-39.2,0-39.5,0V26.5z M596.9,26.5v102.8
	h-35.6V48.8h-0.5l-20.5,80.5h-32.9L487,48.8h-0.6v80.5h-62.3l-6.2-22.1h-33.5l-6.2,22.1h-59.6c0,0-2-15.2-2.5-18.9
	c-1.8-12.7-5.6-15.8-13.2-15.8c-4.6,0-10.4,0-10.4,0v34.8h-61c17.6-4,33.5-12,42.6-17.5l-12.8-48.6l-34.1,9l7.3,27.6
	c-2.1,1.5-9.2,4-14.1,4c-16.3,0-24-16.3-24-30.4c0-22.6,23-31.3,43.4-31.3c4.7,0,10.8,0.4,11.7,0.5l-4.3-16.1c30,0,64.1,0,71,0
	c28.4,0,39.4,13.5,39.4,27.8c0,21.7-20.7,25.8-24.6,26.5c-0.1,0-0.1,0.6,0,0.6c8.3,1.6,14.4,5.6,18.2,12.6
	c-0.1-0.2,21.7-61.8,23.7-67.5h54.6l23,64.5h0.3V26.5h58.6c0,0,13.6,56.3,13.7,56.3c4.4-18.8,13.3-56.3,13.3-56.3H596.9z
	 M192.5,129.3h-83.2c-6.4-23.9-20.1-74.4-20.1-74.4H89v74.4H55V26.5h59.1c6.2,23.7,19.2,72.5,19.2,72.5h0.2V26.5h34.1v15.6
	c-8.3,8.8-13.4,20-13.4,34.1C154.2,96.3,165.6,121.4,192.5,129.3z M645.3,116v3.5l-17.9,5.3v0.1h17.9v4.3h-22v-8l13.2-3.9l-13.2-4
	v-8h22v5.1h-17.9v0.1L645.3,116z M645.3,93.9h-22V99h22V93.9z M631.5,70.1c-5.3,0.6-8.5,3.4-8.5,8.9c0,6.6,5.2,9.9,11.3,9.9
	c6,0,11.3-3.2,11.3-9.7c0-5.1-3-8.5-8-9.1l-0.3,5c2.1,0.3,4.1,1.4,4.1,3.8c0,3.9-3.9,4.2-6.9,4.2c-2.7,0-7.4-0.4-7.4-4
	c0-2.8,2.3-3.7,4.7-3.7L631.5,70.1z M636.6,60.1v-3.7l8.7-3.4v-5.7l-9.7,4.1c-0.9-2.4-3.2-3.8-5.7-3.8c-4.1,0-6.6,2.7-6.6,7.9v9.8
	h22v-5.1L636.6,60.1L636.6,60.1z M627.2,60.1v-3.9c0-2.4,1.5-3.3,2.8-3.3c1.4,0,2.8,0.9,2.8,3.3v3.9H627.2z M645.6,34.2
	c0-5.5-4.2-9.4-11.3-9.4c-5.1,0-11.3,2.6-11.3,9.4c0,6.5,5.4,9.4,11.3,9.4S645.6,40.7,645.6,34.2z M627.2,34.2c0-2.8,2.7-4,7.1-4
	c4.3,0,7.1,1.1,7.1,4c0,3.6-4.4,4-7.1,4C629.9,38.3,627.2,37.1,627.2,34.2z"/>
</svg>
